<?xml version="1.0" encoding="utf-8"?>
<!-- Generator: Adobe Illustrator 23.0.0, SVG Export Plug-In . SVG Version: 6.00 Build 0)  -->
<svg version="1.1" id="Слой_1" xmlns="http://www.w3.org/2000/svg" xmlns:xlink="http://www.w3.org/1999/xlink" x="0px" y="0px"
	 viewBox="0 0 947 745" style="enable-background:new 0 0 947 745;" xml:space="preserve">
<style type="text/css">
	.st0{fill:#161717;}
	.st1{fill:#AFB6BA;}
	.st2{fill:#181919;}
	.st3{fill:url(#SVGID_1_);}
	.st4{fill:#727373;}
	.st5{fill:#212121;}
	.st6{fill:#F0F0EF;}
	.st7{fill:#C59873;}
	.st8{fill:#2D2D2D;}
	.st9{fill:#D7AD88;}
	.st10{fill:url(#SVGID_2_);}
	.st11{fill:url(#SVGID_3_);}
	.st12{fill:#7D5D3E;}
	.st13{fill:#E7E8EB;}
	.st14{fill:#C9D0D7;}
	.st15{fill:#2E3547;}
	.st16{fill:#CB9568;}
	.st17{fill:url(#SVGID_4_);}
	.st18{fill:#423024;}
	.st19{fill:#9FA5AA;}
	.st20{fill:#272D3A;}
	.st21{fill:#658CC9;}
	.st22{fill:#9E9FA7;}
	.st23{fill:#EFEDE6;}
	.st24{fill:#62686F;}
</style>
<g>
	<g>
		<g>
			<path class="st0" d="M218.4,616.13c-0.22,0.04-0.81,14.02-1.35,19.96c-0.4,4.35,0.07,12.39,4.46,12.92
				c4.76,0.57,10.06,0.12,15.36-0.72c0,0,3.48-3.42,8.23-3.77c5.63-0.41,13.06,2.12,13.06,2.12l12.62-1.16
				c0,0,28.47-1.53,31.97-8.93c2.53-5.33,5.05-11.46-9.67-13.54c-24.99-3.52-33.71-8.13-33.71-8.13l-11.1-5.01L218.4,616.13z"/>
			<path class="st1" d="M212.73,627.51c7.96,1.48,21.35-1.26,30.94-6.2c10.9-5.61,21.51-7.98,21.51-7.98l-0.24-19.09l34.04-126.08
				c0,0,0.05-25.35,2.36-64.61c2.36-40.18-2.36-74.51-2.36-74.51l-26.63-31.69l-43.95,3.09l-2.82,33.81l0.89,25.35l10.64,48.32
				l0.27,55.81c0,0-9.2,30.92-14.04,49.72c-2.7,18.54-5.24,38.2-7.06,59.69C214.9,589.29,214.27,611.84,212.73,627.51z"/>
			<g>
				<path class="st2" d="M269.35,628.06c-0.22,0.02,0.32,19.97,0.36,21.49c0.11,4.32-0.04,10.74,4.51,11.66
					c4.93,1,9.71,1.04,15.2,0.68c0,0,5.15-2.81,10.07-2.72c5.84,0.11,12.72,3.03,12.72,3.03l13.08,0c0,0,29.51,1.07,33.18-5.91
					c2.65-5.04,5.29-10.86-9.95-14.25c-25.88-5.75-34.9-11.09-34.9-11.09L302.14,625L269.35,628.06z"/>
				<linearGradient id="SVGID_1_" gradientUnits="userSpaceOnUse" x1="245.0967" y1="480.7235" x2="336.0432" y2="480.7235">
					<stop  offset="0" style="stop-color:#C3CAD1"/>
					<stop  offset="1" style="stop-color:#B9C0C5"/>
				</linearGradient>
				<path class="st3" d="M334.3,460.51c1.89-20.74,2.64-30.47,0.18-51.12c-3.15-26.4-4.57-65.74-7.93-93.35
					c-0.02-0.16-81.45,1.46-81.45,1.46l0.85,40.01l7.24,26.69l11.11,39.57l4.97,42.13c-0.31,2.44-0.65,5.01-1.03,7.79
					c-1.9,13.91-5.75,46.4-2.89,75.46c0.88,32.65,2.65,68.72,2.65,68.72c0.15,4.08-0.97,15.05,0,27.55c0,0,22.65-4.81,29.53-7.84
					c6.88-3.03,18.91-3.85,18.91-3.85l-1.1-11.51c0,0,4.6-60.81,9.32-103.33c1.21-10.91,3.73-19.58,5.38-30.83
					c0.79-3.02,1.7-7.8,2.13-14.14C333.42,465.88,334.3,460.51,334.3,460.51z"/>
				<path class="st1" d="M326.55,316.04c-0.63-5.19-23.13-1.71-26.22-1.4c-14.28,1.43-39.58,4.25-53.25,8.49
					c-6.05,1.88-1.59,12.56-2.12,16.01c8.5,1.01,16.66,1.91,26.84,6.22c10.44,4.42,17.21,15.81,21.04,26.43
					c3.12,8.68,7.4,28.29,9.53,38.48c11.47,54.79-2.87,111.86,6.75,167.43c7.73-23.98,8.36-48.75,14.04-72.99
					c3.56-15.2,9.69-28.12,11.16-44.2c1.89-20.74,2.64-30.47,0.18-51.12C331.33,383,329.91,343.65,326.55,316.04z"/>
			</g>
			<g>
				<g>
					<g>
						<polygon class="st4" points="357.03,353.17 348.35,365.3 348.77,368.45 353.87,365.79 360.91,355.95 						"/>
						<path class="st5" d="M366.75,343.51c-3.35-2.4-9.13-0.04-11.21,2.86c-2.08,2.9-1.05,7.2,2.3,9.59
							c3.35,2.4,7.75,1.99,9.82-0.92C369.74,352.14,370.1,345.9,366.75,343.51z M365.03,345.92c0.73,0.52,0.89,1.53,0.37,2.26
							c-0.52,0.73-1.53,0.89-2.26,0.37s-0.89-1.53-0.37-2.26S364.3,345.4,365.03,345.92z"/>
					</g>
					<g>
						<path class="st5" d="M355.48,324.94l-12.19,0.68c-2.37,0.13-4.2,2.18-4.07,4.55l0.46,8.16c0.13,2.37,2.18,4.2,4.55,4.07
							l12.19-0.68c2.37-0.13,4.2-2.18,4.07-4.55l-0.46-8.16C359.9,326.64,357.85,324.81,355.48,324.94z M357.47,338.25
							c0.5-0.03,0.92,0.35,0.95,0.85c0.03,0.5-0.35,0.92-0.85,0.95c-0.5,0.03-0.92-0.35-0.95-0.85
							C356.6,338.7,356.98,338.27,357.47,338.25z"/>
						<g>
							<path class="st6" d="M353.4,330.98c-1.37,0.08-2.42,1.25-2.34,2.62c0.08,1.37,1.25,2.42,2.62,2.34
								c1.37-0.08,2.42-1.25,2.34-2.62C355.95,331.96,354.77,330.91,353.4,330.98z"/>
							<path class="st6" d="M345.86,331.4c-1.37,0.08-2.42,1.25-2.34,2.62c0.08,1.37,1.25,2.42,2.62,2.34
								c1.37-0.08,2.42-1.25,2.34-2.62C348.4,332.38,347.23,331.33,345.86,331.4z"/>
						</g>
					</g>
					<g>
						<path class="st4" d="M358.55,343.97c-0.04-0.04-0.99-1.02-1.46-2.23l0.8-0.31c0.41,1.05,1.27,1.93,1.27,1.94L358.55,343.97z"
							/>
					</g>
					<g>
						<path class="st4" d="M363.13,347.71c-0.89-0.14-0.87-0.79-0.15-1.13c0.6-0.29,1.34-0.12,1.92-0.49
							c0.61-0.4,1.13-1.02,1.39-1.71c0.86-2.25,0.42-5.62-2.09-7.43c-1.15-0.83-2.42-1.06-3.6-0.65c-1.39,0.49-2.48,1.8-2.98,3.59
							l-0.83-0.23c0.58-2.07,1.86-3.59,3.53-4.17c1.44-0.51,3-0.24,4.39,0.76c2.86,2.06,3.37,5.89,2.39,8.44
							C366.54,346.14,364.98,347.93,363.13,347.71z"/>
					</g>
				</g>
				<g>
					<path class="st7" d="M361.67,340.32c-0.57-2.29-1.75-5.83-3.91-7.02c-0.95-0.52-3.91-1.48-4.92-1.69
						c0.2,1.04,1.76,3.45,2.39,4.21c1.9,2.33,5.7,7.48,3.14,9.24c-2.55,1.75-7.09-2.49-9.27-5.35c-2.42-3.18-8.39-6.67-10.27-10.23
						c-3.11-5.86-2.73-12.65-8.02-16.88c-2.07-1.65-2.09-6.09-2.74-8.81c4.9-2.78,3.69-0.82,8.77-3.25c0.14-0.07,0.28-0.13,0.42-0.2
						c3.46-1.68,3.66-1.43,5.89,1.74c3.45,4.91,14.14,16.31,16.95,20.81c2.15,2.54,3.78,4.46,4.34,5.21
						c1.24,1.63,2.03,2.62,2.16,4.73c0.07,1.12,1.14,5.77,1.14,5.77s1.24,11.19-3.4,10.62c-0.77-0.1-0.79-0.95-0.99-1.7
						C362.77,345.36,362.26,342.73,361.67,340.32z"/>
					<path class="st8" d="M287.24,190.55c5.84,11.48,9.29,20.8,12.51,27.43c1.83,3.76,18.2,43.49,20.39,46.24l30.95,43.93
						l-23.05,13.71c0,0-41.74-37.77-50.63-54.32c-8.34-15.58-6.52-12.57-15.69-26.57c-11.44-17.48-17.35-37.93-9.61-57.57
						c4.19-10.63,7.22-17.75,19.36-12.79C277.02,172.87,282.43,181.1,287.24,190.55z"/>
				</g>
				<g>
					<path class="st9" d="M421.74,254.12c0,0,9.02,4.57,12.41,5.93c5.57,2.25,6.92,2.16,9.27,1.22c0,0,4.17-3.75,8.25-0.72
						s10.24,4.46,15.18,6.07c0,0,5.42,2.63,7.28,3.44c1.86,0.81,2.16,2.56,1.92,6.08c-0.25,3.77-3.07,3.63-4.55,3.9
						c0,0,1.92,1.64,0.27,4.18c-1.12,1.72-2.55,1.81-4.25,1.48c0,0,0.32,2.48-1.37,3.44c0,0-1.68,1.46-4.15,0.13
						c0,0,1.51,4.26-5.99,3.27c0,0-17.41-9.46-22.59-11.35l-21.21-7.78L421.74,254.12z"/>
					<g>
						
							<linearGradient id="SVGID_2_" gradientUnits="userSpaceOnUse" x1="292.3484" y1="-122.8445" x2="356.4854" y2="-110.7847" gradientTransform="matrix(0.9912 -0.1656 0.1241 1.012 5.9758 247.1878)">
							<stop  offset="0" style="stop-color:#D39C6D"/>
							<stop  offset="1" style="stop-color:#D7AD88"/>
						</linearGradient>
						<path class="st10" d="M284.12,77.76c-1.74,16.42-20.4,29.41-20.4,29.41c23.78,2.3,40.55,14.93,40.55,14.93
							s-0.83-1.03,2.28-8.07c3.11-7.04,5.68-9.44,8.22-11.6c3.3,1.68,5.66,2.3,11.11,2.37c5.6,0.07,6.94-1.75,7.44-9.95
							c0.11-1.84,1.93-2.93,2.03-3.49c0.12-0.73-0.92-1.91-0.92-1.91s1.8-0.78,2-1.44c0.33-1.1-0.07-2.17,0.02-2.69
							c0.24-1.46,0.69-2.13,1.09-2.95c1.32,0.34,5.86,0.48,5.3-1.99c-0.99-4.32-2.61-10.38-2.2-14.94c0.34-3.83,2.8-6.97,2.87-10.9
							c0.15-8.15-1.26-16.25-1.26-16.25l-26.86-10.07L284.12,77.76z"/>
						
							<linearGradient id="SVGID_3_" gradientUnits="userSpaceOnUse" x1="2362.5535" y1="-128.0179" x2="2410.8669" y2="-128.0179" gradientTransform="matrix(-0.9852 0.2075 0.1651 1.0043 2640.4246 -268.7527)">
							<stop  offset="0" style="stop-color:#D29969"/>
							<stop  offset="1" style="stop-color:#D7AD88"/>
						</linearGradient>
						<path class="st11" d="M280.35,78.27c0.43-1.51,2.26-14.23,2.25-14.23c3.23,0.16,11.68-4.87,14.65-3.43
							c-0.94,12-3.71,15.61-1.61,21.55c1.72,4.84,8.92,15.84,19.4,20.38c-1.76,1.74-5.28,4.87-8.38,11.92
							c-3.11,7.04-2.39,7.65-2.39,7.65s-14.26-14.59-38.04-16.89c3.99-4.89,5.38-6.91,8.32-12.52
							C276.96,88.09,278.86,83.27,280.35,78.27z"/>
						<path class="st12" d="M336.44,46.08c-1.19,0.46-2.32,1.21-3.28,2.65c-2.92,4.37-3.23,9.85-2.81,14.77
							c-2.95,0.62-7.51,5.26-8.56-5.99c-0.5-5.34,0.6-8.11-3.13-7.26c-3.62,0.83-4.12,3.85-6.05,10.84
							c-1.93,6.99-10.28,11.32-17.43,14.53c-5.58,2.5-9.41,2.06-13.8,2.22c-1.64-3.32-1.78-4.08-2.52-6.85
							c-1.67-6.26-1.13-16.32-0.7-22.85c0.56-8.38,2.24-19.65,10.13-24.8c5.88-3.84,10.79-5.73,17.61-7.21
							c5.47-1.19,15.32-2.33,19.99,0.61c3.65,2.29,5.3,12.25,10.36,7.5c0.79-0.74,0.9-1.8,2.13-1.71c1,0.07,2.29,2.12,2.82,2.83
							c3.18,4.21,7.94,8.49,5.18,14.01C344.23,43.67,339.58,44.88,336.44,46.08z"/>
					</g>
					<path class="st8" d="M274.76,96.44l-7.01,1.89l-6.5,6.9l-21.93,30.17l-11.2,35.18l-6.09,68.68c0,0-1.18,51.17-2.82,62
						c-2.28,15.02,3.71,19.05,8.87,22.58c5.89,4.03,12.87,5.3,21.51,6.47c6.33,0.86,18.92,2.58,30.74,2.06
						c16.99,0,31.01-0.27,48.67-5.51c0.14-2.58,1.86-39.8,1.86-39.8l-5.15-26.92c0,0,8.94-61.36,5.12-83.13
						c-0.23-1.28-1.08-5.39-1.21-5.93c-1.21-3.24-1.15-4.56-2.43-10.45c-3.29-12.72-7.85-24.32-7.85-24.32l-5.2-17.76l-12.94-12.94
						L274.76,96.44z"/>
					<path class="st5" d="M330.82,177.02c-0.22-1.28-1.08-5.39-1.21-5.93c-1.21-3.24-1.15-4.56-2.43-10.45
						c-3.29-12.72-7.85-24.32-7.85-24.32s-0.82-6.79-6.55-11.01c-11.33-8.36-26.18-6.83-28.86-4.32
						c-7.39,6.96-5.88,11.87-7.63,21.77c-3.62,20.58,2.1,42.03,7.57,61.76c4.83,17.43,4.47,40.06,2.33,57.95
						c-3.08,25.72-3.08,42.98-30.59,50.53c20.5,17.8,50.3,16.45,73.22,12.29l2.02-38.23l-5.15-26.92
						C325.7,260.14,334.64,198.78,330.82,177.02z"/>
					<g>
						<path class="st8" d="M313.85,137.81c6.45,11.67,14.39,28.45,17.97,35.2c2.03,3.84,22.1,48.92,25.13,50.88
							c7.11,4.6,78.12,30.65,78.12,30.65l-10.53,36.6c0,0-76.53-14.03-95.38-24.81c-15.75-9-33.32-43.35-44.16-65.3
							c-9.59-19.43-18.13-44.67-10.85-65.8c3.94-11.44,10.46-19.4,23.2-14.98C303.16,122.28,308.53,128.19,313.85,137.81z"/>
					</g>
				</g>
			</g>
		</g>
		<polygon class="st13" points="272.06,87.54 267.75,98.33 287.98,106.42 300.13,113.77 319.53,132.58 318.18,114.51 307.39,105.07 
			291.75,95.1 		"/>
	</g>
	<g>
		<g>
			<path class="st7" d="M447.9,267.99c0,0-0.78-3.39-1.15-4.98c-0.47-1.99-0.06-3.07,1.96-4.35c2.02-1.28,2.39-2.1,4.27-2.74
				c1.88-0.63,4.36-1.04,8.81,0.78c2.02,0.88,4.43,1.14,6.48-0.54c0.66-0.54,2.02-1.62,2.02-1.62s3.23,1.01,4.03,2.22
				c0.76,1.17,1.54,2.34,2.18,3.58c0.69,1.31,0.88,2.82,1.32,4.22c0.41,1.3,1.91,2.62,1.91,4.03l0.17,0.59c0,0-2.39,1.95-3.81,3.57
				c-0.67-1.35-2.18-2.44-5.53-3.71c0,0-2.96-1.34-6.11-2.3c-3.15-0.96-7.34-2.69-8.09-2.83c-0.76-0.14-2.52-0.45-2.97,1.08
				c0,0-0.31,3.05-1.86,4.35C449.98,270.66,448.43,270.22,447.9,267.99z"/>
			<path class="st7" d="M435.66,281.54c-0.48,0.44-2.2,2.97,0.66,4.51c0,0,1.88,0.98,3.28-0.91c0.85-1.15,0.56-2.97-0.71-3.76
				C437.56,280.56,436.14,281.1,435.66,281.54z"/>
			<path class="st7" d="M452.61,288.25c-0.46,0.51-3.43,3.97-1.13,5.16c1.01,0.52,2.98,0.59,4.3-1.52c0.81-1.29,0.85-3.16-0.21-3.82
				C454.14,287.19,453.07,287.75,452.61,288.25z"/>
			<path class="st7" d="M442.2,283.04c-0.48,0.44-4.15,4.62-0.97,6.46c0,0,1.12,0.74,2.6,0.15c1.08-0.43,2.02-2.21,2.61-3.01
				c0.85-1.15,0.27-2.98-1-3.77C444.1,282.06,442.68,282.6,442.2,283.04z"/>
			<path class="st7" d="M448.97,283.35c-0.24,0.22-2.63,3.4-3.22,4.72c-0.59,1.34-0.73,2.87,0.87,3.8c0,0,1.12,0.74,2.6,0.15
				c1.08-0.43,3.39-4.26,3.98-5.06c0.85-1.15,0.43-3.01-0.84-3.78C450.72,282.18,449.45,282.92,448.97,283.35z"/>
		</g>
		<g>
			<g>
				<path class="st0" d="M571.86,616.47c0.23,0.01-0.21,13.98-1.02,21.89c-0.44,4.3,0.49,9.2-3.73,11.11
					c-2.44,1.11-5.27,1.06-8.51,0.99c0,0-1.16-1.59-6.05-1.06c-4.73,0.52-7.6,2.59-7.6,2.59l-34.52,2.87c0,0-12.39-0.42-15.76-7.55
					c-1.82-3.86-1.83-8.11,8.51-10.96c25.34-6.99,33.04-20.82,33.04-20.82L571.86,616.47z"/>
				<g>
					<path class="st0" d="M620.27,639.74c0,0,26.32,1.55,42.88-0.33c-3.2-5.41-3.63-11.06-4-18.88c-3.93,0-39.7-1.57-39.7-1.57
						L620.27,639.74z"/>
					<path class="st0" d="M619.39,641.7c-0.17,4.21,7.39,7.84,14.93,9.49c2.77,0.61,15.44,0.6,18.22,0
						c7.52-1.65,12.75-5.27,12.75-9.48c0-5.76-9.79-10.43-21.87-10.43c-10.08,0-20.4-2.21-23.42,2.22
						C620.09,636.55,619.55,637.81,619.39,641.7z"/>
				</g>
			</g>
			<g>
				<path class="st14" d="M574.21,106.29l11.76-4.36l9.12-4.19l4.76,8.55l10.31,10.31l3.17,6.74l2.58,9.71l11.5-14.27l17.46-18.84
					l5.28,2.85l-0.48-0.67c2.03,0.64,8.4,3.48,12.65,5.34c9.05,3.13,16.92,7.05,19.59,9.11c5.54,4.28,10.06,8.84,13.74,14.68
					c8.12,12.86,9.42,26.83,4.95,41.41l-17.23-23.87l-7.38,13.4l-1.59,11.9l-4.76,25.77l-3.74,32.48l1.7,55.44l-39.2-103.79
					l-61.07-1.19L574.21,106.29z"/>
				<g>
					<path class="st7" d="M542.28,147.9c-4.34,9.92-11.43,25.49-14.2,31.04c-9.64,19.34-17.97,31.56-28.45,43
						c-11.21,12.23-31.64,34.63-31.64,34.63l11.9,12.61c0,0,47.33-28.66,52.94-35.61c3.62-4.49,17.11-22.5,20.38-29.99
						c7.19-16.46,14.62-34.47,15.26-49.19c0.52-11.84-2.71-17.84-11.45-19.22C551.89,134.35,545.94,139.53,542.28,147.9z"/>
				</g>
				<path class="st14" d="M519.97,184.34l15.14-35.71c0,0,6.36-16.58,12.08-24.42c9.14-12.53,29.95-17.43,29.95-17.43
					s2.48,33.03,0.51,41.9c-7.75,34.77-18.04,51.66-18.04,51.66L519.97,184.34z"/>
				<path class="st15" d="M581.88,103.48c-6.13,2.18-9.92,3.98-9.92,3.98s-3.26,9.1-3.73,16.13c-0.57,8.52-1.02,20.17-0.88,34.71
					c0,0.25,2.24,0.98,2.25,1.23c0.02,1.81-0.12,3.83-0.08,5.73c0.01,0.41-2.05,0.16-2.04,0.57c0.05,2.33,0.12,4.73,0.21,7.2
					l0.98,6.36l9.87,0.38c0,0-0.71-3.71-1.57-13.2c-0.04-0.48-2.09-0.81-2.13-1.31c-0.11-1.51,0.71-4.42,0.65-6.14
					c-0.01-0.45,1.39-0.83,1.38-1.29c-0.19-6.88-0.19-15.36,0.23-25.41c0,0,0.26-10.44,1.57-18.4
					C579.98,106.05,581.88,103.48,581.88,103.48z"/>
				<path class="st14" d="M683.03,118.41c0,0,2.95-0.43,9.91,7.77c5.97,7.03,9.45,17.34,11.6,24.78c2.48,8.61,4.38,34.1,4.38,34.1
					l1.64,22.74c0,0-18.93,3.94-30.27,1.57l-12.47-2.19c0,0-3.11-24.21-2.55-42.13C665.84,147.12,683.03,118.41,683.03,118.41z"/>
				<path class="st15" d="M671.98,111.05c-3.5-1.67-7.34-2.95-9.66-3.58c-3.01,2.86-8.39,19.81-9.91,25.8
					c-1.5,5.89-2.89,12.16-4.19,20.44c-0.09,0.55-0.59,0.86-0.68,1.43c-0.23,1.5-0.45,3.91-0.67,5.55c-0.08,0.62,3.2,0.62,3.2,0.62
					l-0.85,7.94c0,0-3,0.1-3.03,0.4c-0.06,0.59-0.08,0.6-0.14,1.19l-0.84,7.03l10.66-0.21c0,0-0.01-2.69,0.52-8.08
					c0.04-0.44-2.65-0.82-2.65-0.82l1.44-7.33c0,0,2.18,0.39,2.27-0.22c0.88-5.72,2.5-15.28,4.36-23.58c0,0,1.82-8.89,4.33-15.68
					C668.66,115.17,671.98,111.05,671.98,111.05z"/>
				<g>
					<path class="st14" d="M634.93,139.42c-13-2.33-26.07-4.58-38.78-8.25c-2.5-6.38-5.08-12.68-7.9-18.84l10.29-19.95l9.39-1
						l31.54,1l7,8.59C646.48,100.98,641.67,127.81,634.93,139.42z"/>
					<g>
						<path class="st16" d="M637.04,79.1c0,0-0.43,18.35,2.1,27.23l-15.9,19.73l-6.64,9.77l-5.62-7.1c0,0-19.13-22.82-16.23-23.6
							c2.9-0.78,9.84-0.6,7.36-30.37L637.04,79.1z"/>
						<g>
							
								<linearGradient id="SVGID_4_" gradientUnits="userSpaceOnUse" x1="934.7283" y1="152.2978" x2="974.2522" y2="152.2978" gradientTransform="matrix(1.4007 0.1205 -0.1205 1.4006 -700.2424 -261.9766)">
								<stop  offset="0" style="stop-color:#D7AD88"/>
								<stop  offset="0.681" style="stop-color:#D4A377"/>
							</linearGradient>
							<path class="st17" d="M622.31,33.29c-4.51-0.81-8.82,0.2-13.29,0.66c-2.74,0.28-5.79-0.21-8.46,0.48
								c-7.61,1.95-8.97,18.99-8.97,18.99l0.9,11c0,0-0.4,11.66,0.07,13.39c0.47,1.73,6.32,19.04,8.11,19.85
								c1.8,0.81,13.07,1.76,13.07,1.76s14.53-8.23,20.95-15.03c1.22-3.35,4.4-9.86,4.35-12.58c4.1,1.86,6.32-4.31,6.86-7.21
								c0.34-1.82,1.03-3.93,0.9-5.81c-0.07-0.89-0.31-1.69-0.89-2.4c-0.23-0.28-2.76-1.87-2.78-1.7c0.36-2.45-0.51-6.64-2.31-8.35
								c-1.38-1.31-2.98-2.34-4.47-3.53C631.13,38.69,629.29,34.54,622.31,33.29z"/>
							<path class="st18" d="M604.51,39.52c2.5-0.65,7.66-1.98,10.25-2.13c2.33-0.13,6.33,0.25,8.27,1.94
								c2.44,2.13,2,3.96,1.06,6.17c-0.65,1.52,0.72,4.4,4.01,6.81c2.65,1.94,3.41,2.98,3.5,6.01c0.05,1.69-0.85,7.02,1.1,7.81
								c0.63,0.25,2.29,0.84,2.69,0.31c1.45-1.89,0.55-6.31,2.86-9c1.84-2.13,3.42-2.92,5.23-2.43c1.1,0.3,2.11,1.12,2.82,1.95
								c-0.58-0.68,0.6-8.23,0.61-9.46c0.02-2.91,0.08-6.25-0.87-9.03c-1.57-4.58-4.72-10.9-8.43-14.17
								c-3.63-3.19-9.93-6.08-14.92-5.9c-2.17,0.08-4.16,0.82-6.27,1.17c-4.5,0.76-10.6,1.42-14.27-1.64
								c-0.74-0.61-1.5-1.53-2.5-1.73c-2.8-0.57-6.56,2.93-7.89,5.07c-2.07,3.35-3.12,6.2-3.54,10.14
								c-0.23,2.17-0.19,4.43,0.19,6.59c0.17,0.96,0.41,1.85,0.88,2.71c0.76,1.38,1.81,2.2,3.15,2.99c1.51,0.9,4.28-0.63,5.62-1.36
								C600.47,41.04,601.85,40.22,604.51,39.52z"/>
						</g>
					</g>
					<g>
						<polygon class="st19" points="593.04,118.91 605.63,112.92 608.84,120.66 611.58,128.92 604.38,122.37 						"/>
					</g>
					<polygon class="st13" points="605.66,112.72 596.51,99.2 598.55,92.39 590.41,96.45 586.65,106.93 590.21,121.88 					"/>
					<path class="st19" d="M622.42,123.97c3.64-5,10.6-11.38,10.6-11.38s11.17-3.84,14.18,0.27c0,0-12.31,6.16-20.43,12.99
						c-8.12,6.83-12.09,13.93-12.09,13.93S618.77,128.97,622.42,123.97z"/>
					<polygon class="st13" points="632.36,112.72 641.51,99.2 639.47,92.39 647.61,96.45 651.37,106.93 647.81,121.88 					"/>
				</g>
				<g>
					<g>
						<path class="st2" d="M646.17,160.48l0.52-4.72c0.1-0.89,0.8-1.62,1.56,0.98h9.83c0.76-2.6,1.3-1.87,1.2-0.98l-0.52,4.72
							c-0.1,0.89-0.8,1.62-1.56,3.28h-9.83C646.61,162.1,646.07,161.37,646.17,160.48z M648.08,156.74
							c-0.07-1.13-0.13-1.06-0.14-0.98l-0.52,4.72c-0.01,0.08,0.04,0.15,0.11,3.28h9.83c0.07-3.13,0.13-3.2,0.14-3.28l0.52-4.72
							c0.01-0.08-0.04-0.15-0.11,0.98H648.08z"/>
					</g>
					<g>
						<path class="st2" d="M644.96,171.19l0.15-1.33c0.08-0.7,0.63-1.27,1.23-6.09h10.47c0.6,4.82,1.02,5.39,0.95,6.09l-0.15,1.33
							c-0.08,0.7-0.63,1.27-1.23-0.41h-10.47C645.31,172.46,644.88,171.89,644.96,171.19z M656.41,163.76h-10.02l-0.09,7.02h10.02
							L656.41,163.76z"/>
					</g>
					<g>
						<path class="st2" d="M647.31,170.78h8.38c0-1.53-0.84-1.92-0.23-4.7c0.7-3.17,1.69-4.91,1.69-2.32h-9.53
							c0-2.59,0.66-0.92,0.63,2.36C648.23,168.93,647.31,169.26,647.31,170.78z"/>
					</g>
				</g>
				<g>
					<g>
						<path class="st2" d="M567.06,157.14v-4.72c-1-0.89-0.41-1.62,0.33-2.69h9.52c0.74,1.08,1.34,1.8,4.19,2.69v4.72
							c-2.81,0.89-3.4,1.62-4.14-0.4h-9.52C566.71,158.75,566.11,158.03,567.06,157.14z M567.4,149.72
							c-0.06,2.55-0.12,2.62-0.34,2.69v4.72c0.25,0.08,0.31,0.15,0.38-0.4h9.52c0.06,0.54,0.12,0.48-2.87,0.4v-4.72
							c2.96-0.08,2.9-0.15,2.84-2.69H567.4z"/>
					</g>
					<g>
						<path class="st2" d="M567.06,167.85v-1.33c-0.92-0.7-0.46-1.27,0.12-2.75h10.14c0.58,1.48,1.06,2.05,3.78,2.75v1.33
							c-2.7,0.7-3.17,1.27-3.75,2.94h-10.14C566.63,169.12,566.15,168.55,567.06,167.85z M574.08,163.76h-7.02l0,0H574.08
							L574.08,163.76z"/>
					</g>
					<g>
						<path class="st2" d="M568.2,163.76h8.11c0,2.15-0.86,1.76-0.58-1.03c0.32-3.17,1.08-4.91,1.08-5.99h-9.22
							c0,1.08,0.83,2.76,1.17,6.03C569.05,165.59,568.2,165.91,568.2,163.76z"/>
					</g>
				</g>
				<path class="st15" d="M567.42,172.91l90.85,4.03c0,0-1.06,31.68,1.64,59.62c0.74,7.69,2.49,24,2.49,24l2.67,13.4l7.13,23.12
					l1.15,31.82l-15.03,114.19l7.02,127.06v49.93h-50.23l-1.77-48.35l-6.34-127.59l-2.97-68.77L592,457.89l-10.4,109.09l-5.29,53.1
					h-50.23l2.64-60.51c0,0,2.47-104.33,2.47-109.09c0-4.76,16.1-118.06,16.1-118.06l11.63-63.35l6.96-55.61L567.42,172.91z"/>
				<path class="st20" d="M528.74,558.75c0,0,2.46-104.33,2.46-109.09c0-4.76,16.1-118.06,16.1-118.06l11.63-63.35l6.96-55.61
					l1.53-40.56l21.22,0.94c0.99,12.4,2.1,33.82,2.66,45.45c0.57,11.81,23.76,58.88,46.18,60.8c-17.94,7.69-31.15,18.68-32.14,28.07
					c-1.67,15.79,6.15,35.47,10.45,44.68c6.14,13.15,8.97,18.96,10.32,32.89c5.23,47.12,3.08,27.61,4.54,64.76
					c1.51,38.32,5.9,76.57,7.86,114.87c0.95,18.53,2.51,37.03,3.01,55.53h-26.43l-1.77-49.17l-6.34-127.59l-2.97-68.77l-2.7,18.55
					L592,457.06l-10.4,109.09l-5.29,53.93h-50.23L528.74,558.75z"/>
				<g>
					<g>
						<polygon class="st20" points="658.43,380.39 659.08,367.73 653.72,336.93 646.92,326.12 						"/>
					</g>
					<polygon class="st21" points="548.28,371.92 555.4,373.75 575.97,322.07 568.85,320.24 					"/>
					<polygon class="st21" points="651.12,380.24 658.43,380.39 646.92,326.12 639.62,325.97 					"/>
				</g>
				<polygon class="st21" points="665.2,280.81 557.51,275.62 555.33,289.12 670.03,294.75 				"/>
				<g>
					<polygon class="st22" points="618.74,280.02 691.54,256.76 718.59,321.05 647.79,347.59 					"/>
					<polygon class="st23" points="624.28,282.55 689.04,261.86 713.04,318.88 650.06,342.48 					"/>
					<polygon class="st24" points="648.48,322.75 645.66,323.87 636.56,301.73 639.38,300.61 					"/>
				</g>
				<path class="st9" d="M672.99,208.26l5.76,39.69l7.4,40.18l-4.76,22.21l-9.52,11.1l-3.7,9.52l0.26,9.78l1.59,2.91l1.59-0.26
					l1.85-3.97l3.7,4.49l3.17,0.79l8.46-3.7l8.2-4.76l3.97-3.44l0.79-3.17l-1.06-3.7l-1.59-8.2l-0.26-8.2l2.11-4.23l3.97-40.18
					c0,0,3.43-25.94,2.64-33.87c-0.79-7.93-2.47-22.81-2.47-22.81l-14.89,1.26l-10.32-0.34L672.99,208.26z"/>
			</g>
		</g>
	</g>
</g>
</svg>
